<svg width="26" height="30" viewBox="0 0 26 30" fill="none" xmlns="http://www.w3.org/2000/svg">
<path d="M16.8999 7.50253H9.10002C8.81301 7.50253 8.58008 7.27848 8.58008 7.00241V4.25139C8.57993 1.90714 10.5626 0 12.9999 0C15.4372 0 17.4198 1.90714 17.4198 4.25139V7.00226C17.4198 7.27848 17.1869 7.50253 16.8999 7.50253ZM9.61996 6.50214H16.3798V4.25139C16.3798 2.45884 14.8635 1.00024 12.9998 1.00024C11.1361 1.00024 9.61996 2.45884 9.61996 4.25139V6.50214Z" fill="black"/>
<path d="M24.4397 9.50319H1.56006L3.12003 7.00244H22.8797L24.4397 9.50319Z" fill="white"/>
<path d="M24.4397 10.0034H1.56009C1.37256 10.0034 1.19996 9.90637 1.10764 9.74958C1.01532 9.59279 1.01761 9.40054 1.11419 9.24565L2.67416 6.74476C2.76801 6.59398 2.93726 6.50195 3.12007 6.50195H22.8798C23.0626 6.50195 23.2318 6.59398 23.3257 6.74476L24.8856 9.24565C24.9821 9.40024 24.9845 9.59279 24.8922 9.74958C24.7999 9.90622 24.6271 10.0034 24.4397 10.0034ZM2.4784 9.00299H23.5214L22.5854 7.50249H3.41469L2.4784 9.00299Z" fill="black"/>
<path d="M12.9875 10.6059L20.0757 12.2003L21.8516 4.89533L14.7635 3.30095L12.9875 10.6059Z" fill="black"/>
<path d="M20.0761 12.7027C20.0368 12.7027 19.9971 12.6985 19.957 12.6895L12.8684 11.0948C12.7341 11.0645 12.6178 10.9845 12.545 10.8715C12.4722 10.759 12.449 10.623 12.4806 10.4939L14.2572 3.18874C14.3224 2.9197 14.6019 2.75207 14.8819 2.81566L21.9705 4.41039C22.1049 4.44072 22.2211 4.52073 22.2939 4.63371C22.3667 4.74624 22.3899 4.88223 22.3584 5.01132L20.5817 12.3165C20.5258 12.5473 20.312 12.7027 20.0761 12.7027ZM13.6115 10.2347L19.6877 11.6017L21.2271 5.27084L15.1509 3.90382L13.6115 10.2347Z" fill="black"/>
<path d="M4.68937 11.9717L13.3867 10.9827L12.2851 2.01925L3.58776 3.00822L4.68937 11.9717Z" fill="black"/>
<path d="M4.68858 12.4725C4.42853 12.4725 4.20413 12.2854 4.17275 12.0309L3.07148 3.06784C3.03796 2.79353 3.24179 2.54486 3.52667 2.51233L12.2238 1.52352C12.3614 1.50799 12.4983 1.5455 12.6068 1.62756C12.7153 1.70962 12.7852 1.82992 12.8013 1.96165L13.9026 10.925C13.9188 11.0566 13.8801 11.1893 13.7945 11.2934C13.7091 11.3977 13.5841 11.465 13.4474 11.4805L4.75028 12.469C4.72941 12.4712 4.70884 12.4725 4.68858 12.4725ZM4.16513 3.44721L5.14453 11.4169L12.809 10.5459L11.8296 2.57592L4.16513 3.44721Z" fill="black"/>
<path d="M9.59297 15.7196L17.9707 13.7819L15.8507 5.30139L7.47293 7.23912L9.59297 15.7196Z" fill="white"/>
<path d="M9.59227 16.2196C9.35751 16.2196 9.14424 16.0658 9.08711 15.8365L6.96713 7.3564C6.9001 7.0878 7.07194 6.81774 7.35118 6.75327L15.728 4.81565C15.8626 4.78488 16.0035 4.80642 16.121 4.87514C16.2385 4.94445 16.3227 5.05597 16.355 5.18477L18.475 13.6651C18.5073 13.7942 18.4849 13.9302 18.4128 14.0432C18.3408 14.1564 18.2251 14.2372 18.0909 14.2683L9.71414 16.2057C9.67347 16.2154 9.63234 16.2196 9.59227 16.2196ZM8.09963 7.60873L9.97648 15.1165L17.3422 13.4129L15.4653 5.90528L8.09963 7.60873Z" fill="black"/>
<path d="M25.4796 29.0098H0.52002L1.5599 9.50317H24.4395L25.4796 29.0098Z" fill="black"/>
<path d="M25.4795 29.51H0.519989C0.37755 29.51 0.241205 29.4537 0.142945 29.3544C0.0449897 29.255 -0.00650167 29.1211 0.000658357 28.9842L1.04069 9.47765C1.05501 9.21184 1.28322 9.00317 1.56017 9.00317H24.4398C24.7168 9.00317 24.945 9.21169 24.9593 9.47765L25.9993 28.9842C26.0066 29.1212 25.9551 29.255 25.857 29.3544C25.7582 29.4537 25.622 29.51 25.4795 29.51ZM1.0672 28.5096H24.9322L23.9455 10.0034H2.05391L1.0672 28.5096Z" fill="black"/>
<path d="M16.8999 13.5046C17.4743 13.5046 17.9399 13.0567 17.9399 12.5042C17.9399 11.9517 17.4743 11.5038 16.8999 11.5038C16.3255 11.5038 15.8599 11.9517 15.8599 12.5042C15.8599 13.0567 16.3255 13.5046 16.8999 13.5046Z" fill="white"/>
<path d="M16.8998 14.0047C16.0395 14.0047 15.3398 13.3316 15.3398 12.5042C15.3398 11.6767 16.0395 11.0037 16.8998 11.0037C17.7601 11.0037 18.4598 11.6767 18.4598 12.5042C18.4598 13.3316 17.7601 14.0047 16.8998 14.0047ZM16.8998 12.004C16.6131 12.004 16.3799 12.2284 16.3799 12.5042C16.3799 12.7799 16.6131 13.0043 16.8998 13.0043C17.1865 13.0043 17.4198 12.7799 17.4198 12.5042C17.4198 12.2284 17.1865 12.004 16.8998 12.004Z" fill="black"/>
<path d="M9.0996 13.5046C9.674 13.5046 10.1396 13.0567 10.1396 12.5042C10.1396 11.9517 9.674 11.5038 9.0996 11.5038C8.52521 11.5038 8.05957 11.9517 8.05957 12.5042C8.05957 13.0567 8.52521 13.5046 9.0996 13.5046Z" fill="white"/>
<path d="M9.10001 14.0047C8.23974 14.0047 7.54004 13.3316 7.54004 12.5042C7.54004 11.6767 8.23974 11.0037 9.10001 11.0037C9.96028 11.0037 10.66 11.6767 10.66 12.5042C10.66 13.3316 9.96028 14.0047 9.10001 14.0047ZM9.10001 12.004C8.81331 12.004 8.58007 12.2284 8.58007 12.5042C8.58007 12.7799 8.81331 13.0043 9.10001 13.0043C9.38672 13.0043 9.61995 12.7799 9.61995 12.5042C9.61995 12.2284 9.38672 12.004 9.10001 12.004Z" fill="black"/>
<path d="M13 20.0067C10.5628 20.0067 8.58008 18.0996 8.58008 15.7553V13.0045C8.58008 12.7284 8.81301 12.5043 9.10002 12.5043C9.38704 12.5043 9.61997 12.7284 9.61997 13.0045V15.7553C9.61997 17.5479 11.1362 19.0065 13 19.0065C14.8638 19.0065 16.38 17.548 16.38 15.7553V13.1973C16.354 13.1381 16.34 13.0727 16.34 13.0045C16.34 12.7284 16.5729 12.5043 16.8599 12.5043H16.9C17.187 12.5043 17.4199 12.7284 17.4199 13.0045V15.7553C17.4199 18.0996 15.4372 20.0067 13 20.0067Z" fill="black"/>
</svg>
